<mxfile host="Electron" agent="Mozilla/5.0 (Windows NT 10.0; Win64; x64) AppleWebKit/537.36 (KHTML, like Gecko) draw.io/28.0.6 Chrome/138.0.7204.100 Electron/37.2.3 Safari/537.36" version="28.0.6">
  <diagram name="Página-1" id="b86xKYCoZxXic9H3QsGF">
    <mxGraphModel dx="983" dy="580" grid="0" gridSize="10" guides="1" tooltips="1" connect="1" arrows="1" fold="1" page="1" pageScale="1" pageWidth="827" pageHeight="1169" math="0" shadow="0">
      <root>
        <mxCell id="0" />
        <mxCell id="1" parent="0" />
        <mxCell id="0eh6mk4d2yYmgGX7qjE--1" value="Anualidad de plataforma tecnológica carreras virtuales" style="shape=table;startSize=28;container=1;collapsible=0;childLayout=tableLayout;fixedRows=1;rowLines=0;fontStyle=0;strokeColor=default;fontSize=15;fontFamily=Times New Roman;" vertex="1" parent="1">
          <mxGeometry x="29" y="28" width="356.16502463054167" height="95.48275862068972" as="geometry" />
        </mxCell>
        <mxCell id="0eh6mk4d2yYmgGX7qjE--2" value="" style="shape=tableRow;horizontal=0;startSize=0;swimlaneHead=0;swimlaneBody=0;top=0;left=0;bottom=0;right=0;collapsible=0;dropTarget=0;fillColor=none;points=[[0,0.5],[1,0.5]];portConstraint=eastwest;strokeColor=inherit;fontSize=16;fontFamily=Times New Roman;" vertex="1" parent="0eh6mk4d2yYmgGX7qjE--1">
          <mxGeometry y="28" width="356.16502463054167" height="20" as="geometry" />
        </mxCell>
        <mxCell id="0eh6mk4d2yYmgGX7qjE--3" value="&lt;font style=&quot;font-size: 14px;&quot;&gt;Detalle&lt;/font&gt;&lt;div&gt;&lt;br&gt;&lt;/div&gt;" style="shape=partialRectangle;html=1;whiteSpace=wrap;connectable=0;fillColor=none;top=0;left=0;bottom=0;right=0;overflow=hidden;pointerEvents=1;strokeColor=inherit;fontSize=16;fontFamily=Times New Roman;" vertex="1" parent="0eh6mk4d2yYmgGX7qjE--2">
          <mxGeometry width="76" height="20" as="geometry">
            <mxRectangle width="76" height="20" as="alternateBounds" />
          </mxGeometry>
        </mxCell>
        <mxCell id="0eh6mk4d2yYmgGX7qjE--4" value="&lt;font style=&quot;font-size: 14px;&quot;&gt;Ciclo 01-2025&lt;/font&gt;" style="shape=partialRectangle;html=1;whiteSpace=wrap;connectable=0;fillColor=none;top=0;left=0;bottom=0;right=0;align=left;spacingLeft=6;overflow=hidden;strokeColor=inherit;fontSize=16;fontFamily=Times New Roman;" vertex="1" parent="0eh6mk4d2yYmgGX7qjE--2">
          <mxGeometry x="76" width="280" height="20" as="geometry">
            <mxRectangle width="280" height="20" as="alternateBounds" />
          </mxGeometry>
        </mxCell>
        <mxCell id="0eh6mk4d2yYmgGX7qjE--5" value="" style="shape=tableRow;horizontal=0;startSize=0;swimlaneHead=0;swimlaneBody=0;top=0;left=0;bottom=0;right=0;collapsible=0;dropTarget=0;fillColor=none;points=[[0,0.5],[1,0.5]];portConstraint=eastwest;strokeColor=inherit;fontSize=16;fontFamily=Times New Roman;" vertex="1" parent="0eh6mk4d2yYmgGX7qjE--1">
          <mxGeometry y="48" width="356.16502463054167" height="26" as="geometry" />
        </mxCell>
        <mxCell id="0eh6mk4d2yYmgGX7qjE--6" value="&lt;font style=&quot;font-size: 14px;&quot;&gt;Encargado&lt;/font&gt;" style="shape=partialRectangle;html=1;whiteSpace=wrap;connectable=0;fillColor=none;top=0;left=0;bottom=0;right=0;overflow=hidden;strokeColor=inherit;fontSize=16;fontFamily=Times New Roman;" vertex="1" parent="0eh6mk4d2yYmgGX7qjE--5">
          <mxGeometry width="76" height="26" as="geometry">
            <mxRectangle width="76" height="26" as="alternateBounds" />
          </mxGeometry>
        </mxCell>
        <mxCell id="0eh6mk4d2yYmgGX7qjE--7" value="&lt;span style=&quot;font-size: 14px;&quot;&gt;Mesalina Ramírez&lt;/span&gt;" style="shape=partialRectangle;html=1;whiteSpace=wrap;connectable=0;fillColor=none;top=0;left=0;bottom=0;right=0;align=left;spacingLeft=6;overflow=hidden;strokeColor=inherit;fontSize=16;fontFamily=Times New Roman;" vertex="1" parent="0eh6mk4d2yYmgGX7qjE--5">
          <mxGeometry x="76" width="280" height="26" as="geometry">
            <mxRectangle width="280" height="26" as="alternateBounds" />
          </mxGeometry>
        </mxCell>
        <mxCell id="0eh6mk4d2yYmgGX7qjE--8" value="" style="shape=tableRow;horizontal=0;startSize=0;swimlaneHead=0;swimlaneBody=0;top=0;left=0;bottom=0;right=0;collapsible=0;dropTarget=0;fillColor=none;points=[[0,0.5],[1,0.5]];portConstraint=eastwest;strokeColor=inherit;fontSize=16;fontFamily=Times New Roman;" vertex="1" parent="0eh6mk4d2yYmgGX7qjE--1">
          <mxGeometry y="74" width="356.16502463054167" height="20" as="geometry" />
        </mxCell>
        <mxCell id="0eh6mk4d2yYmgGX7qjE--9" value="" style="shape=partialRectangle;html=1;whiteSpace=wrap;connectable=0;fillColor=none;top=0;left=0;bottom=0;right=0;overflow=hidden;strokeColor=inherit;fontSize=16;fontFamily=Times New Roman;" vertex="1" parent="0eh6mk4d2yYmgGX7qjE--8">
          <mxGeometry width="76" height="20" as="geometry">
            <mxRectangle width="76" height="20" as="alternateBounds" />
          </mxGeometry>
        </mxCell>
        <mxCell id="0eh6mk4d2yYmgGX7qjE--10" value="" style="shape=partialRectangle;html=1;whiteSpace=wrap;connectable=0;fillColor=none;top=0;left=0;bottom=0;right=0;align=left;spacingLeft=6;overflow=hidden;strokeColor=inherit;fontSize=16;fontFamily=Times New Roman;" vertex="1" parent="0eh6mk4d2yYmgGX7qjE--8">
          <mxGeometry x="76" width="280" height="20" as="geometry">
            <mxRectangle width="280" height="20" as="alternateBounds" />
          </mxGeometry>
        </mxCell>
        <mxCell id="0eh6mk4d2yYmgGX7qjE--13" value="" style="edgeStyle=orthogonalEdgeStyle;rounded=0;orthogonalLoop=1;jettySize=auto;html=1;" edge="1" parent="1" source="0eh6mk4d2yYmgGX7qjE--11" target="0eh6mk4d2yYmgGX7qjE--12">
          <mxGeometry relative="1" as="geometry" />
        </mxCell>
        <mxCell id="0eh6mk4d2yYmgGX7qjE--11" value="Contratación y formalización" style="rounded=0;whiteSpace=wrap;html=1;fillColor=#dae8fc;strokeColor=#6c8ebf;fontFamily=Times New Roman;fontSize=13;" vertex="1" parent="1">
          <mxGeometry x="353" y="179" width="120" height="43" as="geometry" />
        </mxCell>
        <mxCell id="0eh6mk4d2yYmgGX7qjE--15" value="" style="edgeStyle=orthogonalEdgeStyle;rounded=0;orthogonalLoop=1;jettySize=auto;html=1;" edge="1" parent="1" source="0eh6mk4d2yYmgGX7qjE--12" target="0eh6mk4d2yYmgGX7qjE--14">
          <mxGeometry relative="1" as="geometry" />
        </mxCell>
        <mxCell id="0eh6mk4d2yYmgGX7qjE--12" value="Si presidencia autoriza, la Dirección de Utec Virtual solicita un nuevo contrato al proveedor con el incremento de usuarios" style="whiteSpace=wrap;html=1;fontSize=13;fontFamily=Times New Roman;rounded=0;" vertex="1" parent="1">
          <mxGeometry x="322.5" y="249" width="181" height="68" as="geometry" />
        </mxCell>
        <mxCell id="0eh6mk4d2yYmgGX7qjE--17" value="" style="edgeStyle=orthogonalEdgeStyle;rounded=0;orthogonalLoop=1;jettySize=auto;html=1;" edge="1" parent="1" source="0eh6mk4d2yYmgGX7qjE--14" target="0eh6mk4d2yYmgGX7qjE--16">
          <mxGeometry relative="1" as="geometry" />
        </mxCell>
        <mxCell id="0eh6mk4d2yYmgGX7qjE--14" value="El proveedor envía el contrato actualizado a Utec Virtual por correo electrónico" style="whiteSpace=wrap;html=1;fontSize=13;fontFamily=Times New Roman;rounded=0;" vertex="1" parent="1">
          <mxGeometry x="353" y="344" width="120" height="60" as="geometry" />
        </mxCell>
        <mxCell id="0eh6mk4d2yYmgGX7qjE--19" value="" style="edgeStyle=orthogonalEdgeStyle;rounded=0;orthogonalLoop=1;jettySize=auto;html=1;" edge="1" parent="1" source="0eh6mk4d2yYmgGX7qjE--16" target="0eh6mk4d2yYmgGX7qjE--18">
          <mxGeometry relative="1" as="geometry" />
        </mxCell>
        <mxCell id="0eh6mk4d2yYmgGX7qjE--16" value="La Dirección de Utec Virtual remite el contrato a VRA para gestión de firma por parte del rector" style="whiteSpace=wrap;html=1;fontSize=13;fontFamily=Times New Roman;rounded=0;" vertex="1" parent="1">
          <mxGeometry x="341" y="431" width="145" height="69" as="geometry" />
        </mxCell>
        <mxCell id="0eh6mk4d2yYmgGX7qjE--18" value="Una vez firmado, Utec Virtual envía el contrato al proveedor y copia a Innovación y Tecnología para registro" style="whiteSpace=wrap;html=1;fontSize=13;fontFamily=Times New Roman;rounded=0;" vertex="1" parent="1">
          <mxGeometry x="331" y="527" width="164" height="74" as="geometry" />
        </mxCell>
      </root>
    </mxGraphModel>
  </diagram>
</mxfile>
